<?xml version="1.0" standalone="no"?>
<!DOCTYPE svg PUBLIC "-//W3C//DTD SVG 20010904//EN"
 "http://www.w3.org/TR/2001/REC-SVG-20010904/DTD/svg10.dtd">
<svg version="1.0" xmlns="http://www.w3.org/2000/svg"
 width="1024.000000pt" height="1024.000000pt" viewBox="0 0 1024.000000 1024.000000"
 preserveAspectRatio="xMidYMid meet">

<g transform="translate(0.000000,1024.000000) scale(0.100000,-0.100000)"
fill="#ffffff" stroke="none">
<path d="M5098 8466 c-1 -2 -40 -6 -85 -10 -91 -7 -260 -48 -398 -96 -315
-111 -629 -335 -867 -621 -195 -234 -334 -536 -389 -844 -27 -152 -37 -483
-20 -605 56 -383 256 -798 498 -1037 369 -363 778 -585 1169 -634 125 -15 408
-16 538 0 378 44 746 194 1021 416 161 129 352 336 432 469 10 16 32 50 49 76
93 142 183 364 218 540 42 210 54 405 36 591 -48 482 -308 980 -680 1304 -260
226 -629 395 -960 439 -90 12 -550 21 -562 12z m443 -256 c235 -23 534 -124
721 -245 121 -79 261 -199 352 -303 149 -171 274 -393 351 -621 l54 -161 -357
0 -357 1 -9 -83 c-5 -46 -9 -437 -10 -869 l-1 -786 -115 -63 c-63 -35 -132
-72 -152 -83 -21 -11 -41 -17 -45 -13 -5 4 -6 314 -4 689 2 375 5 844 5 1042
1 395 -12 1060 -22 1133 l-7 45 -642 1 -642 1 -6 -495 c-3 -272 -8 -927 -11
-1456 l-5 -961 -140 69 -139 68 0 728 c0 400 -3 797 -6 882 l-7 155 -363 -3
c-291 -2 -363 0 -359 10 2 7 16 63 30 123 14 61 36 130 49 155 13 25 29 63 36
85 7 22 23 54 35 71 13 16 31 48 40 70 9 21 29 53 44 69 16 17 34 41 41 55 57
111 306 341 490 454 204 124 448 209 680 235 104 12 356 12 471 1z m-365 -586
c-3 -9 -6 -634 -6 -1390 l0 -1374 -42 1 c-24 0 -81 6 -128 12 l-85 12 -7 670
c-4 369 -5 988 -2 1378 l7 707 134 0 c119 0 134 -2 129 -16z m514 -570 c12
-546 9 -2138 -4 -2151 -7 -7 -204 -43 -236 -43 l-25 0 0 1389 0 1389 126 0
126 0 13 -584z m-1823 -439 l233 0 0 -634 c0 -349 -1 -632 -3 -630 -4 5 -125
136 -214 232 l-63 67 0 329 0 330 -52 5 c-29 3 -84 9 -122 13 l-70 8 0 147 -1
146 30 -6 c17 -4 135 -7 262 -7z m2915 -5 c35 0 38 -3 47 -38 l11 -37 72 3
c40 2 85 -1 101 -7 27 -10 27 -12 27 -96 0 -104 -6 -110 -130 -119 -46 -4 -87
-9 -90 -12 -3 -3 -7 -148 -10 -322 l-5 -317 -43 -60 c-51 -71 -192 -235 -202
-235 -15 0 -20 168 -15 575 2 231 4 478 5 549 l0 129 98 -6 c53 -4 114 -7 134
-7z"/>
<path d="M4181 7559 c-50 -26 -96 -84 -112 -143 -14 -52 0 -103 48 -173 89
-132 251 -120 345 26 27 41 29 53 26 113 -3 63 -6 70 -43 109 -80 82 -183 109
-264 68z"/>
<path d="M6325 7571 c-67 -16 -128 -65 -151 -120 -8 -18 -14 -59 -14 -90 0
-73 30 -125 94 -168 40 -28 57 -33 105 -33 32 0 73 8 96 19 74 33 141 131 130
188 -2 10 -7 35 -10 56 -9 57 -74 123 -138 142 -55 16 -66 17 -112 6z"/>
<path d="M4582 4349 c-119 -23 -192 -100 -192 -200 0 -49 4 -59 33 -89 38 -39
113 -74 181 -84 27 -4 60 -12 73 -17 31 -12 31 -52 -2 -77 -21 -17 -31 -18
-77 -10 -29 5 -73 21 -98 34 l-45 25 -42 -48 c-23 -26 -42 -54 -43 -61 0 -14
79 -52 153 -72 74 -20 185 -9 241 24 91 53 125 188 65 252 -34 37 -63 50 -167
74 -110 26 -140 46 -123 79 26 47 121 55 193 17 l45 -24 45 62 45 62 -56 22
c-53 20 -151 43 -175 41 -6 -1 -30 -5 -54 -10z"/>
<path d="M7281 4340 c-86 -18 -176 -91 -222 -181 -15 -31 -22 -62 -22 -114 -2
-92 31 -163 108 -233 63 -58 119 -77 204 -69 55 5 179 54 225 89 18 14 17 16
-16 36 -19 12 -47 33 -63 48 -28 26 -28 26 -44 6 -25 -31 -55 -42 -117 -42
-65 0 -112 27 -140 82 -24 46 -16 143 15 185 28 37 85 63 139 63 40 0 99 -30
109 -56 5 -14 8 -14 22 4 9 11 35 33 59 50 l43 31 -21 21 c-31 31 -137 78
-190 84 -25 2 -65 1 -89 -4z"/>
<path d="M8337 4336 c-87 -32 -137 -93 -137 -166 0 -85 60 -147 172 -180 40
-12 82 -30 93 -41 18 -18 19 -21 5 -47 -27 -48 -60 -50 -139 -11 -80 40 -87
39 -131 -25 l-30 -44 38 -22 c61 -37 111 -50 186 -50 124 0 198 39 237 124 24
53 24 103 -1 143 -24 40 -55 56 -158 83 -111 28 -132 38 -132 66 0 55 94 71
168 29 l44 -25 46 51 c26 29 48 55 50 59 1 4 -26 20 -60 35 -76 34 -190 44
-251 21z"/>
<path d="M2033 4332 l-72 -3 15 -48 c29 -99 205 -526 222 -539 9 -7 35 -12 56
-10 39 3 39 4 56 63 9 33 28 87 43 120 15 33 35 86 44 118 l18 58 74 -176 74
-175 58 0 58 0 11 43 c26 97 105 324 169 486 12 29 20 55 19 56 -3 3 -158 11
-158 9 0 -18 -40 -156 -72 -247 l-41 -118 -37 108 c-21 59 -50 141 -66 180
l-29 73 -60 0 -61 0 -54 -180 c-30 -99 -58 -180 -61 -180 -4 0 -9 14 -13 31
-7 37 -107 322 -115 329 -3 3 -38 4 -78 2z"/>
<path d="M2954 4331 c-2 -2 -4 -136 -4 -298 l0 -293 225 0 225 0 0 59 0 58
-92 7 c-50 3 -117 6 -150 6 l-58 0 0 50 0 50 135 0 135 0 0 55 0 55 -77 2
c-43 2 -105 3 -138 3 l-60 1 -3 55 -3 56 152 6 c110 4 154 9 160 19 5 7 9 36
9 63 l0 50 -226 0 c-124 0 -227 -2 -230 -4z"/>
<path d="M3520 4038 l0 -303 172 3 c166 2 175 4 228 30 125 63 152 192 52 254
-29 18 -32 23 -20 32 26 19 58 80 58 110 0 58 -63 133 -135 160 -11 4 -95 10
-187 12 l-168 6 0 -304z m320 147 c24 -22 26 -52 3 -77 -13 -14 -31 -18 -95
-18 l-78 0 0 59 0 60 75 -3 c55 -2 81 -8 95 -21z m16 -228 c20 -18 25 -29 20
-45 -10 -31 -30 -38 -123 -46 l-83 -7 0 58 0 58 79 3 c71 2 82 0 107 -21z"/>
<path d="M4966 4080 c-4 -140 -4 -273 -1 -295 l7 -40 218 0 218 0 6 35 c3 19
6 47 6 61 l0 27 -144 7 c-79 4 -149 4 -155 1 -7 -5 -11 11 -11 48 l0 56 135 0
135 0 0 55 0 55 -135 0 -135 0 0 60 0 60 155 0 155 0 0 63 0 62 -224 0 -223 0
-7 -255z"/>
<path d="M6133 4333 l-61 -4 7 -27 c13 -45 115 -279 185 -425 l67 -138 55 3
55 3 24 59 c13 33 28 62 34 65 5 3 17 33 26 66 10 33 24 71 31 85 8 14 22 48
33 75 10 28 35 90 55 139 20 49 36 91 36 93 0 2 -35 3 -77 3 l-78 0 -43 -135
c-40 -125 -97 -255 -111 -255 -3 0 -19 40 -35 88 -16 48 -48 130 -71 182 -23
52 -45 103 -48 113 -4 9 -10 16 -14 15 -4 -1 -36 -3 -70 -5z"/>
<path d="M5520 4037 c0 -161 2 -296 4 -298 2 -2 36 -3 75 -1 l71 4 0 91 0 92
45 -3 c45 -4 45 -5 107 -98 41 -63 66 -93 76 -89 7 3 45 5 83 5 42 0 69 4 69
11 0 6 -17 31 -38 57 -50 60 -105 153 -88 146 18 -7 81 80 95 131 20 75 -15
159 -88 210 l-43 30 -184 3 -184 3 0 -294z m324 148 c9 -11 18 -35 22 -53 5
-27 2 -38 -15 -55 -18 -18 -36 -23 -106 -26 l-85 -3 0 74 c0 41 3 78 8 82 4 4
42 6 84 4 63 -2 80 -7 92 -23z"/>
<path d="M6758 4033 c2 -164 4 -298 5 -298 1 0 37 1 80 3 l77 4 0 294 0 294
-82 0 -83 0 3 -297z"/>
<path d="M7667 4218 c-9 -143 -9 -451 -1 -472 3 -9 10 -13 15 -11 4 3 97 8
206 10 216 5 211 3 212 67 2 51 -18 58 -160 58 l-130 0 3 53 3 52 115 3 c76 2
117 7 122 15 4 7 8 31 8 55 l0 42 -125 0 -125 0 0 54 0 53 77 7 c42 3 104 6
138 6 l62 0 7 38 c3 20 6 47 6 60 l0 22 -213 0 -214 0 -6 -112z"/>
<path d="M4550 3363 c-71 -11 -65 6 -67 -190 -1 -98 -6 -208 -10 -245 l-9 -66
193 1 193 1 0 41 c0 22 3 50 6 62 6 22 5 22 -117 25 l-124 3 -5 185 c-5 199
-3 193 -60 183z"/>
<path d="M5594 3120 c2 -138 5 -253 8 -255 7 -7 251 15 285 26 51 16 108 63
136 112 52 88 30 208 -51 278 -56 50 -106 67 -217 73 -55 4 -115 9 -133 12
l-32 5 4 -251z m251 100 c63 -31 95 -110 68 -168 -20 -42 -63 -62 -133 -62
l-50 0 0 43 c0 23 -3 79 -7 125 l-6 82 43 0 c24 0 62 -9 85 -20z"/>
<path d="M5000 3306 c0 -63 4 -66 97 -66 l65 0 -6 -67 c-3 -38 -8 -121 -12
-185 l-6 -118 67 0 c63 0 66 1 65 23 -1 12 -2 95 -1 185 l1 162 80 0 80 0 0
60 0 60 -215 0 -215 0 0 -54z"/>
<path d="M3433 3202 l-481 -2 -4 -43 c-1 -23 -2 -55 0 -72 l3 -30 509 0 510 0
10 29 c14 40 13 92 -2 103 -22 17 -50 18 -545 15z"/>
<path d="M6651 3186 c-7 -8 -15 -30 -18 -49 -4 -29 -1 -40 20 -61 l26 -26 520
0 520 0 6 44 c4 24 4 58 0 75 l-7 31 -528 0 c-442 0 -529 -2 -539 -14z"/>
<path d="M6130 2981 c-14 -27 -13 -84 2 -99 16 -16 80 -15 103 2 27 19 24 74
-4 98 -31 24 -87 24 -101 -1z"/>
</g>
</svg>
